<?xml version="1.0" ?><!DOCTYPE svg  PUBLIC '-//W3C//DTD SVG 1.1//EN'  'http://www.w3.org/Graphics/SVG/1.1/DTD/svg11.dtd'><svg height="512px" style="enable-background:new 0 0 512 512;" version="1.1" viewBox="0 0 512 512" width="512px" xml:space="preserve" xmlns="http://www.w3.org/2000/svg" xmlns:xlink="http://www.w3.org/1999/xlink"><g id="形状_5_3_" style="enable-background:new    ;"><g id="形状_5"><g><path d="M35.964,200.354c-2.577,0-5.054,0.999-6.911,2.787     c-1.858,1.788-2.952,4.228-3.053,6.806v22.182c0.188,2.52,1.318,4.873,3.166,6.592c1.849,1.718,4.276,2.673,6.798,2.673     c2.521,0,4.949-0.955,6.796-2.673c1.849-1.719,2.98-4.072,3.166-6.592v-22.182c-0.101-2.578-1.194-5.018-3.053-6.806     C41.017,201.354,38.541,200.354,35.964,200.354z M91.124,172.809c-2.577,0-5.054,0.999-6.912,2.787     c-1.856,1.789-2.951,4.229-3.053,6.807v49.727c0.188,2.52,1.319,4.873,3.166,6.592c1.849,1.718,4.276,2.673,6.798,2.673     c2.521,0,4.949-0.955,6.796-2.673c1.849-1.719,2.98-4.072,3.167-6.592v-49.727c-0.102-2.578-1.195-5.018-3.053-6.807     C96.176,173.808,93.7,172.809,91.124,172.809z M145.988,134.998c-2.577,0-5.054,1-6.91,2.788     c-1.858,1.789-2.953,4.228-3.053,6.808v107.563c0.187,2.519,1.318,4.873,3.166,6.59c1.848,1.719,4.275,2.673,6.797,2.673     c2.521,0,4.949-0.954,6.797-2.673c1.848-1.717,2.979-4.071,3.167-6.59V144.594c-0.101-2.58-1.196-5.019-3.053-6.808     C151.041,135.998,148.564,134.998,145.988,134.998z M201.139,172.809c-2.576,0-5.053,0.999-6.91,2.787     c-1.858,1.789-2.952,4.229-3.053,6.807v49.727c0.188,2.52,1.318,4.873,3.167,6.592c1.848,1.718,4.276,2.673,6.796,2.673     c2.522,0,4.95-0.955,6.798-2.673c1.848-1.719,2.979-4.072,3.166-6.592v-49.727c-0.102-2.578-1.196-5.018-3.053-6.807     C206.191,173.808,203.716,172.809,201.139,172.809z M256.046,200.354c-2.577,0-5.053,0.999-6.911,2.787     c-1.857,1.788-2.952,4.228-3.053,6.806v22.182c0.188,2.52,1.32,4.873,3.167,6.592c1.849,1.718,4.276,2.673,6.797,2.673     c2.522,0,4.95-0.955,6.797-2.673c1.849-1.719,2.979-4.072,3.166-6.592v-22.182c-0.102-2.578-1.195-5.018-3.053-6.806     S258.624,200.354,256.046,200.354z M311.155,172.809c-2.577,0-5.054,0.999-6.911,2.787c-1.857,1.789-2.951,4.229-3.053,6.807     v49.727c0.188,2.52,1.318,4.873,3.166,6.592c1.848,1.718,4.277,2.673,6.798,2.673c2.521,0,4.949-0.955,6.797-2.673     c1.849-1.719,2.979-4.072,3.167-6.592v-49.727c-0.102-2.578-1.195-5.018-3.053-6.807     C316.209,173.808,313.732,172.809,311.155,172.809z M366.039,134.998c-2.577,0-5.054,1-6.912,2.788     c-1.856,1.789-2.95,4.228-3.051,6.808v107.563c0.187,2.519,1.317,4.873,3.166,6.59c1.848,1.719,4.275,2.673,6.797,2.673     c2.521,0,4.949-0.954,6.798-2.673c1.848-1.717,2.979-4.071,3.166-6.59V144.594c-0.102-2.58-1.196-5.019-3.053-6.808     C371.093,135.998,368.616,134.998,366.039,134.998z M421.104,172.809c-2.577,0-5.054,0.999-6.91,2.787     c-1.857,1.789-2.952,4.229-3.053,6.807v49.727c0.187,2.52,1.317,4.873,3.166,6.592c1.848,1.718,4.275,2.673,6.797,2.673     s4.949-0.955,6.798-2.673c1.848-1.719,2.979-4.072,3.166-6.592v-49.727c-0.102-2.578-1.195-5.018-3.054-6.807     C426.156,173.808,423.68,172.809,421.104,172.809z M482.947,203.142c-1.857-1.788-4.334-2.787-6.912-2.787     c-2.576,0-5.053,0.999-6.909,2.787c-1.858,1.788-2.952,4.228-3.053,6.806v22.182c0.187,2.52,1.317,4.873,3.166,6.592     c1.848,1.718,4.275,2.673,6.796,2.673c2.521,0,4.95-0.955,6.799-2.673c1.848-1.719,2.979-4.072,3.166-6.592v-22.182     C485.898,207.369,484.804,204.93,482.947,203.142z" style="fill-rule:evenodd;clip-rule:evenodd;fill:#09383D;"/></g></g></g><g id="形状_5_2_" style="enable-background:new    ;"><g id="形状_5_1_"><g><path d="M250.871,334.434c-2.431-2.194-5.288-3.86-8.393-4.896     l-13.836-5.143c-1.654-0.703-2.999-1.984-3.78-3.605c-0.609-1.349-0.552-2.905,0.155-4.205c0.247-0.456,0.558-0.876,0.922-1.245     c0.424-0.43,0.899-0.806,1.415-1.122c0.205-0.126,0.415-0.245,0.628-0.354c1.547-0.767,3.217-1.253,4.933-1.438     c2.929-0.423,5.906-0.393,8.826,0.094c3.449,0.374,6.869,0.986,10.232,1.834l0.715,0.159v-16.955l-1.323-0.284     c-3.429-0.822-6.904-1.442-10.407-1.856c-4.541-0.606-9.139-0.627-13.685-0.059c-5.758,0.528-11.236,2.734-15.755,6.346     c-3.064,2.409-5.395,5.628-6.73,9.292c-2.009,5.582-2.016,11.689-0.016,17.275c1.034,2.775,2.688,5.277,4.839,7.313     c1.864,1.8,3.973,3.33,6.262,4.545c3.015,1.622,6.211,2.88,9.522,3.744c1.093,0.328,2.179,0.674,3.261,1.038l1.639,0.603     c0.157,0.063,0.313,0.126,0.469,0.191c1.616,0.579,3.093,1.491,4.334,2.679c0.862,0.808,1.526,1.805,1.94,2.911     c0.256,1.013,0.26,2.072,0.012,3.087c-0.518,1.635-1.656,3.001-3.167,3.804c-1.648,0.858-3.435,1.419-5.278,1.652     c-2.704,0.43-5.448,0.569-8.182,0.413c-3.582-0.27-7.146-0.746-10.674-1.427c-1.845-0.378-3.68-0.809-5.501-1.289l-0.684-0.172     l-0.077,18.378l1.341,0.23c4.211,0.788,8.462,1.335,12.734,1.641c3.742,0.347,7.503,0.42,11.256,0.22     c3.585-0.26,7.13-0.93,10.563-1.996c4.029-1.142,7.766-3.138,10.957-5.852c2.875-2.457,5.071-5.612,6.382-9.162     c2.286-5.944,2.239-12.535-0.127-18.448C255.348,339.307,253.386,336.583,250.871,334.434z M107.973,295.086     c-5.978,0.152-11.865,1.501-17.315,3.966c-5.501,2.524-10.351,6.277-14.176,10.973c-11.958,15.153-12.277,36.458-0.778,51.963     c5.66,7.252,13.606,12.368,22.541,14.518c9.419,2.293,19.288,1.946,28.523-1.001l1.565-0.431v-21.339l-0.417,0.183     c-4.802,2.329-10.027,3.658-15.356,3.904c-5.538,0.435-11.041-1.19-15.458-4.563c-3.156-2.438-5.5-5.775-6.73-9.572     c-1.357-4.138-1.514-8.576-0.453-12.8c0.985-4.319,3.4-8.177,6.853-10.946c3.061-2.565,6.802-4.182,10.766-4.651     c7.008-0.777,14.088,0.554,20.337,3.823l0.459,0.236v-21.46l-0.973-0.261C121.104,295.616,114.536,294.755,107.973,295.086z      M156.102,376.483h20.147v-80.035h-20.147V376.483z M318.498,295.086c-5.979,0.152-11.866,1.501-17.315,3.965     c-5.501,2.525-10.351,6.279-14.176,10.974c-11.958,15.153-12.276,36.458-0.776,51.963c5.658,7.252,13.604,12.368,22.54,14.518     c9.419,2.293,19.287,1.946,28.522-1.001l1.564-0.431v-21.339l-0.418,0.183c-4.802,2.329-10.026,3.658-15.356,3.904     c-5.537,0.435-11.04-1.19-15.456-4.563c-3.155-2.439-5.502-5.776-6.73-9.573c-1.357-4.138-1.515-8.576-0.454-12.8     c0.985-4.319,3.401-8.177,6.854-10.946c3.061-2.565,6.802-4.182,10.766-4.651c7.008-0.777,14.088,0.554,20.338,3.823l0.457,0.236     v-21.46l-0.973-0.261C331.629,295.616,325.061,294.755,318.498,295.086z M424.657,301.334     c-12.919-8.007-29.132-8.463-42.479-1.193c-13.348,7.27-21.779,21.146-22.092,36.359c0.196,12.651,6.061,24.544,15.973,32.388     c9.912,7.845,22.819,10.811,35.153,8.076c16.749-3.159,29.801-16.362,32.788-33.167S439.288,310.089,424.657,301.334z      M423.33,338.871c-0.621,5.546-3.416,10.619-7.771,14.103c-4.354,3.482-9.912,5.09-15.45,4.468     c-5.538-0.62-10.604-3.42-14.08-7.782c-3.478-4.36-5.082-9.927-4.462-15.474s3.415-10.62,7.77-14.103s9.913-5.09,15.451-4.47     c5.538,0.622,10.603,3.422,14.08,7.783S423.95,333.324,423.33,338.871z" style="fill-rule:evenodd;clip-rule:evenodd;fill:#CB0F19;"/></g></g></g></svg>