<?xml version="1.0" standalone="no"?>
<!DOCTYPE svg PUBLIC "-//W3C//DTD SVG 20010904//EN"
 "http://www.w3.org/TR/2001/REC-SVG-20010904/DTD/svg10.dtd">
<svg version="1.0" xmlns="http://www.w3.org/2000/svg"
 width="35.000000pt" height="408.000000pt" viewBox="0 0 35.000000 408.000000"
 preserveAspectRatio="xMidYMid meet">

<g transform="translate(0.000000,408.000000) scale(0.100000,-0.100000)"
fill="#000000" stroke="none">
<path d="M305 4061 c-98 -24 -146 -105 -181 -303 -13 -76 -18 -210 -24 -733
-7 -607 -9 -645 -29 -740 -13 -55 -32 -125 -43 -155 -26 -69 -26 -120 0 -190
60 -160 72 -305 72 -870 0 -267 5 -545 10 -619 21 -273 75 -405 179 -440 60
-20 61 -19 61 74 0 82 -1 85 -23 85 -48 0 -85 45 -108 131 -7 29 -14 242 -19
609 -8 612 -17 731 -68 950 -15 63 -27 142 -27 175 0 33 12 112 27 175 51 219
60 338 68 950 8 564 11 614 45 681 15 29 61 59 90 59 12 0 15 15 15 85 0 47
-3 85 -7 84 -5 -1 -21 -4 -38 -8z"/>
</g>
</svg>
