<?xml version="1.0" standalone="no"?>
<!DOCTYPE svg PUBLIC "-//W3C//DTD SVG 20010904//EN"
 "http://www.w3.org/TR/2001/REC-SVG-20010904/DTD/svg10.dtd">
<svg version="1.0" xmlns="http://www.w3.org/2000/svg"
 width="35.000000pt" height="408.000000pt" viewBox="0 0 35.000000 408.000000"
 preserveAspectRatio="xMidYMid meet">

<g transform="translate(0.000000,408.000000) scale(0.100000,-0.100000)"
fill="#000000" stroke="none">
<path d="M294 4069 c-70 -20 -128 -121 -162 -280 -33 -152 -42 -333 -42 -844
0 -280 -4 -517 -11 -566 -13 -108 -37 -224 -55 -272 -16 -44 -18 -91 -4 -117
14 -26 39 -146 56 -265 10 -74 13 -228 14 -586 0 -487 9 -694 36 -824 41 -200
95 -284 197 -309 l27 -6 0 83 0 83 -32 9 c-36 11 -66 54 -81 119 -5 22 -13
304 -17 626 -8 601 -15 724 -58 945 -22 115 -22 235 0 355 44 239 50 339 58
940 5 352 12 603 18 630 6 25 11 48 12 52 1 20 55 68 76 68 23 0 24 2 24 85 0
91 1 91 -56 74z"/>
</g>
</svg>
