<svg xmlns="http://www.w3.org/2000/svg" width="180" height="100" viewBox="0 0 180 100">
    <g fill="#1A1A1A" fill-rule="nonzero">
        <path d="M53.111 71.358h-3.13l1.542-4.283 1.588 4.283zm5.677 5.57l-.163-.089c-.782-.428-1.111-1.573-1.469-2.539l-4.082-10.891-3.89-.003v.356l.225.077s.176.061.283.131c.229.156.394.4.14 1.107-.105.307-.192.534-.192.534l-3.224 8.673c-.34.963-.634 2.126-1.43 2.554l-.267.102v.343h4.378v-.343l-.32-.126c-.382-.155-.485-.528-.073-1.706l.502-1.572h4.653c.115.324.263.786.49 1.459.224.66.543 1.574.072 1.832l-.287.113v.343h4.685l-.03-.354zM87.22 63.406v.343l.32.13c.51.201.495 1.487.484 2.255v8.41c.008.697.02 2.081-.478 2.275l-.325.124v.34h4.48v-.332l-.316-.13c-.505-.206-.495-1.584-.487-2.28v-8.37c-.018-1.166.147-2.157.487-2.294l.316-.13v-.34h-4.48M70.48 63.406v.343l.319.13c.51.201.496 1.487.484 2.255v8.41c.008.697.02 2.081-.478 2.275l-.326.124v.339h4.481v-.331l-.316-.13c-.507-.206-.495-1.584-.488-2.28v-8.37c-.016-1.166.148-2.157.488-2.294l.316-.13v-.34h-4.48M119.605 66.133c.01-.767.025-2.054-.484-2.256l-.32-.13v-.342h4.481v.34l-.316.13c-.342.138-.505 1.13-.488 2.294v8.371c-.007.697-.019 2.073.488 2.28l.316.13v.336h-4.48v-.343l.325-.126c.497-.192.485-1.576.477-2.274l.001-8.41M40.354 69.727l-.463.037-.289.002v-6.222c.346-.04.772-.06 1.272-.06 1.082 0 1.927.274 2.446.791.448.446.675 1.093.675 1.924 0 2.127-1.874 3.407-3.64 3.528zm5.182-7.49c-1.014-1.01-2.53-1.567-4.269-1.567h-5.723v.366l.294.096c.73.34.692 2.158.692 3.469v8.77l.003.343c.009.982.025 2.797-.696 3.093l-.315.13v.345h5.246v-.34l-.228-.113c-.938-.619-.938-1.956-.938-3.349v-2.923l.562.201s.88.31 1.679.31c2.44 0 5.066-1.664 5.066-5.32 0-1.402-.475-2.616-1.373-3.51zM69.053 73.54l-.088.065c-.146.107-.3.208-.293.205-.84.527-2.132 1.154-3.524 1.154-1.09 0-1.988-.344-2.672-1.028-.867-.862-1.345-2.25-1.345-3.9 0-2.535 1.504-4.305 3.659-4.305 1.008 0 2.048.353 3.004 1.023l.28.194.523.366v-3.618l-.38-.098c-1.325-.344-2.397-.506-3.373-.506-1.87 0-3.506.644-4.73 1.86-1.312 1.31-2.035 3.219-2.035 5.377 0 2.187.682 4.022 1.971 5.307 1.292 1.287 3.141 1.967 5.346 1.967 1.11 0 2.094-.217 2.925-.644l.06-.029.11-.057.045-.115.953-3.217h-.436M103.411 73.54s-.387.273-.38.27c-.84.527-2.134 1.154-3.525 1.154-1.09 0-1.989-.344-2.672-1.028-.868-.862-1.345-2.25-1.345-3.9 0-2.535 1.503-4.305 3.66-4.305 1.008 0 2.047.353 3.004 1.023l.802.56v-3.618l-.381-.098c-1.324-.344-2.395-.506-3.371-.506-1.871 0-3.507.644-4.731 1.86-1.312 1.31-2.035 3.219-2.035 5.377 0 2.187.682 4.022 1.972 5.307 1.292 1.287 3.14 1.967 5.346 1.967 1.108 0 2.093-.217 2.925-.644l.17-.086.997-3.332h-.436M84.858 63.413l-3.676-.007h-4.48v.343l.32.13c.508.201.495 1.487.485 2.26l-.002 8.406c.008.696.02 2.08-.478 2.274l-.325.124v.339h4.48v-.331l-.316-.13c-.505-.206-.495-1.584-.487-2.28V71.77H82.853l.02-.003c.008-.003 1.07-.085 1.236.356l.073.195.295.059.193-3.712-.371-.005-.074.232c-.096.3-1.074.372-1.353.36l-.019-.002H80.38c0-1.21 0-2.754.004-3.415h3.31c.738 0 1.128.173 1.264.563l.076.224h.333l.808-3.3s-1.063.091-1.316.091M133.071 63.413l-3.674-.007h-4.48v.343l.319.13c.509.201.496 1.487.484 2.26v8.406c.007.696.019 2.08-.479 2.274l-.325.124v.339h4.481v-.331l-.317-.13c-.506-.206-.494-1.584-.487-2.28V71.77H131.068l.019-.003c.009-.003 1.07-.085 1.236.356l.072.195.295.059.194-3.712-.37-.005-.076.232c-.096.3-1.071.372-1.353.36l-.017-.002h-2.475c-.001-1.21 0-2.754.006-3.415h3.31c.737 0 1.125.173 1.26.563l.077.224h.334l.809-3.3s-1.065.091-1.318.091M144.554 73.895c-.843.69-2.22 1.07-3.65 1.07-1.431 0-2.048-.191-2.048-.191l.002-.234v-3.313l2.037-.003c.009-.003 1.085-.032 1.236.358l.073.194.316.057.181-3.418-.37-.003-.074.232c-.096.3-1.015.353-1.296.339h-2.103c-.002-1.113 0-2.522.004-3.148h2.628c.737 0 1.417-.007 1.637.563l.076.224h.346l.639-3.3s-1.06.08-1.312.084h-7.695v.343l.319.13c.508.201.495 1.487.486 2.26l-.002 8.406c.006.654.014 2-.41 2.27-.121.077-.393.12-.393.124v.341h8.902l.851-3.385h-.38M117.871 73.127l-.147.135c-1.132 1.05-2.538 1.544-4.033 1.544-1.496 0-2.105-.054-2.105-.054V63.97c0-.954 0-2.57.84-2.847l.315-.089v-.364h-5.19v.364l.315.09c.677.277.664 1.913.653 2.846v10.06c.01.93.024 2.53-.644 2.792l-.324.126v.335h9.28l1.479-4.156h-.439M91.649 24.585c2.958 0 5.814.438 8.51 1.25-.56.377-1.278.81-2.232 1.29-3.476 1.755-3.935 1.897-5.476 2.668-.95.474-1.736.981-2.373 1.458a.99.99 0 0 0-.028-.03s-.65-.832-1.069-1.133c-.42-.3-1.223-.462-1.506-.604-.552-.279-.624-.47-1.395-.711-.677-.213-1.088-.097-1.537-.18-.352-.065-.815-.258-1.39-.2-.326.034-.839.266-1.204.296-.468.039-.939-.146-1.288-.085-.359.065-.842.452-1.408.559-.396.073-.84-.012-1.13.059-.294.07-.908.596-1.205.703-.294.107-.973.164-.926.746.043.524 1.192.641 1.192.641s4.955.676 9.664 3.129c-.686.841-1.34 1.79-1.955 2.788-.369-.113-.874-.27-1.196-.302-.513-.051-1.04.195-1.356.182-.698-.028-.79-.185-1.585-.05-.605.105-.663.286-1.191.435-.343.096-.786-.058-1.415.144-.302.097-.798.624-1.123.775-.26.122-.745.127-1.1.389-.28.207-.262.47-.825.817-.363.22-.642.15-1.02.511-.207.197-.274.543-.887 1.012-.818.626-.696 1.126-.62 1.31.22.543 1.45.005 1.45.005s4.006-1.36 8.894-1.614c-1.233 2.515-2.331 4.949-2.904 6.522-.141.39-.26.726-.353.997-.097-.027-.075-.013-.097-.027-.312-.193-.314-.634-.139-1.488.186-.89.876-2.59 1.088-3.043l-.277.001a46.41 46.41 0 0 0-1.118 2.073c-.227.48-.317.618-.861 1.75-.093.194-.421.749-.697.734-.213-.009-.456-.156-.456-.368 0-.106.155-.327.21-.41a11.068 11.068 0 0 0 1.227-2.456h-.277s-1.799 4.067-5.567 4.067c-1.316 0-2.634-.616-2.634-.616s-1.787.808-4.226.808c-1.88 0-3.06-.37-3.503-.54 2.583-13.726 14.308-24.262 29.314-24.262zm10.32.799c.331-.184.56-.365.877-.462.33-.098.643.003.938-.013.232-.012.681-.39.886-.374.24.017.442.083.607.171.18.097.871-.38 1.068-.37.136.005.59.013.487.508a19.361 19.361 0 0 1-1.53 4.351c-.263.53-.564 1.078-.913 1.622-1.441 2.246-2.706 1.743-5.432 2.998-2.092.961-2.97 1.64-3.32 1.976a40.57 40.57 0 0 1-.522-.33c.381-.367 1.226-.956 3.052-1.887 1.909-.972 5.046-2.319 5.707-3.382.053-.085-.005-.147-.052-.208-.712.478-1.338.806-1.666.972-3.08 1.554-4.134 1.938-5.501 2.621-.664.331-1.605.935-2.279 1.403-.174-.117-.352-.237-.53-.362a14.271 14.271 0 0 1 2.379-1.53c1.368-.684 2.54-1.257 5.834-3.166.3-.174 1.946-1.183 3.192-2.087.028-.109.054-.214.077-.315-1.13.65-4.8 2.602-5.557 2.983-3.08 1.554-2.938 1.444-4.306 2.127-.921.463-1.756 1.051-2.34 1.465a11.92 11.92 0 0 1-.502-.404c.745-.49 1.428-.974 2.411-1.495 1.382-.73 1.552-.865 4.633-2.417 1.566-.789 4.324-2.622 5.764-3.538.018-.121.032-.163.047-.268-1.532.843-5.897 3.11-6.622 3.474-3.08 1.554-3.43 1.68-4.798 2.364-.806.404-1.562.894-2.093 1.274l-.371-.352a23.305 23.305 0 0 1 2.525-1.645c1.346-.768 1.607-.864 4.687-2.418a77.715 77.715 0 0 0 3.24-1.85c.423-.253.874-.53 1.271-.777.274-.168.538-.43.782-.566l-.156-.076c-.654.276-1.483.721-1.705.85-1.592.923-3.677 1.83-4.298 2.142-3.08 1.554-3.43 1.68-4.797 2.364-.753.376-1.589.938-2.177 1.369a34.001 34.001 0 0 1-.388-.38 13.549 13.549 0 0 1 2.57-1.66c1.367-.683 1.662-.807 4.742-2.363a18.827 18.827 0 0 0 1.432-.793c.068.02 1.422-.743 2.647-1.546zm-1.63 10.641c-.06.41-.293.563-.477.65-.182.086-.478.308-.559.43-.035.057-.082.032-.11.004-.017-.016-.16-.093-.23-.154-.022-.02-.038-.043-.041-.062-.01-.076.01-.138.01-.138l.009-.142c.02-.04.003-.224.003-.224s-.066-.31-.022-.564c.054-.323.384-.58.384-.58l.144.05s-.163.19-.262.45c-.051.134-.087.518.014.742.014.034.01.192.01.192l.08.07s.1-.067.135-.093c.194-.16.278-.219.278-.219s-.302-.202-.156-.498c.141-.286.467-.194.467-.194.1-.338.047-.686.047-.686l.204.066s.144.44.072.9zm-3.541 4.863c-.613-.003-1.478-.264-1.784-.734.078.882 1.112 1.589 2.05 1.652v.058c-.199.058-.41.09-.631.087-1.187-.007-2.152-.95-2.152-2.104 0-.142.03-.352.06-.5.862.697 2.834 1.7 3.893.24l.039.096c-.234.64-.756 1.21-1.475 1.205zM88.5 49.275c-.108.013-.07.025-.184.037.45-1.899 1.601-6.512 4.42-11.237.389.286.7.528.934.714-2.04 3.133-4.19 7.117-5.17 10.486zm-2.422.08c-.103-.007-.06-.015-.161-.024.487-2.03 1.85-7.269 5.185-12.394.336.222.645.433.926.63-2.278 3.289-4.857 7.95-5.95 11.787zm-2.46-.655c.662-2.524 2.23-7.853 5.76-12.846.345.207.673.407.982.604-2.35 3.149-5.277 8.176-6.582 12.367-.105-.04-.06-.082-.16-.125zm-2.006-.927c-.09-.055-.025-.106-.103-.154.842-2.757 2.859-8.395 6.139-12.753.33.18.652.359.956.535-2.266 2.765-5.387 7.897-6.992 12.372zm40.38 6.363a29.584 29.584 0 0 0-.027-.886c-.158.008-8.298.56-12.317.56-5.264 0-12.828-.081-12.828-.081l-34.983-.346c.003-.084.02-.645.025-.729l34.92-.115s7.602.087 12.866.087c3.993 0 12.114-.032 12.276-.026-.03-.434-.068-1.033-.117-1.464-.163.008-8.231.639-12.159.639-5.264 0-12.828-.335-12.828-.335l-8.97.025-11.84-.349-14-.123c.013-.115.086-.674.101-.79.487.072.942.238 2.63.238 2.22 0 3.324-.53 3.324-.53s1.61.472 3.832.472c1.04 0 3.29-1.05 4.688-.633 2.24.669 3.125-.337 3.125-.337s.522.685 1.472.881c.806.169 1.71-.375 1.71-.375s1.26.915 4.88.891c4.44-.026 5.649-2.324 5.649-2.324h.16s-.162.626.093 1.18c.456.993 1.864 1.13 1.864 1.13-.165-2.785 1.06-4.604 1.06-4.604h.166l-.15.592c-.504 1.994.37 3.824.37 3.824l.43-.222s-.393-1.278.027-3.028c.418-1.752 1.004-2.647 1.004-2.647h.21s-.438 1.358-.425 2.437c.009.897.487 2.976 2.208 3.595 1.315.473 2.22-.591 2.22-.591s2.76.7 5.1.7c5.428 0 6.65-.91 6.65-.91s.357.653 3.135.653c1.62 0 2.854-.11 3.603-.204.237-.03.426-.056.561-.076a32.03 32.03 0 0 0-.218-1.371c-1.533-8.458-6.454-15.742-13.314-20.407l-.398 1.105c6.698 4.43 11.556 11.338 13.057 19.509a9.813 9.813 0 0 1-3.291.576c-2.133 0-2.644-.676-2.644-.676s-.776.544-2.178.544c-1.208 0-2.192-.873-2.192-.873s-1.318 1.201-3.474 1.201c-2.693 0-4.051-1.668-4.515-2.403a10.6 10.6 0 0 1-.735-1.354h-.216c.058.294.116.637.258 1.007.363.966.578 1.293.715 1.547.075.139.252.513-.128.624-.222.063-.4-.085-.47-.208-.145-.195-.618-.878-.945-1.92a11.52 11.52 0 0 1-.487-2.505h-.166a11.09 11.09 0 0 0-.094 2.362c.073 1.133.391 1.93.472 2.116.012.028.08.168.088.253.045.345-.23.527-.518.462-.248-.056-.462-.295-.594-.517-1.154-1.934.245-5.598.688-6.844.604-1.692.79-3.253.79-3.253s.778-1.27 1.198-2.117c.534-1.077.917-2.128 1.27-2.482.55-.547 1.347-1.815 2.235-3.42.17-.308.92-1.95 1.065-2.362.105-.299.258-.617.348-.938.437-1.552.696-3.215.717-3.471.028-.383-.675-.654-.675-.654s-.58-.222-.996-.22c-.218.001-.527.23-.786.349-.339.155-.507.053-.507.053s-.513-.207-.791-.151c-.236.046-.508.345-.719.435-.378.16-.474.078-.474.078s-.437-.12-.75-.015c-.286.095-.564.239-1.041.623a31.701 31.701 0 0 0-10.945-1.935c-17.31 0-31.377 13.843-31.644 31.02-.003.163-.004.873-.004.873h63.295s0-.655-.003-.82z"/>
    </g>
</svg>
