<?xml version="1.0" encoding="utf-8"?>
<!-- Generator: Adobe Illustrator 16.0.0, SVG Export Plug-In . SVG Version: 6.00 Build 0)  -->
<svg version="1.2" baseProfile="tiny" id="Layer_1" xmlns="http://www.w3.org/2000/svg" xmlns:xlink="http://www.w3.org/1999/xlink"
	 x="0px" y="0px"  viewBox="0 0 3000 3000" xml:space="preserve">
<g id="Logo_Placeholder">
	<g>
		<g>
			<polygon fill="#115840" points="225.594,1397.911 435.333,1660.433 486.729,1660.433 213.099,1318.739 138.088,1318.739 
				138.088,1359.021 183.927,1359.021 183.927,1621.542 138.088,1621.542 138.088,1660.433 270.042,1660.433 270.042,1621.542 
				224.208,1621.542 224.208,1395.13 			"/>
			<polygon fill="#115840" points="527.011,1318.739 395.058,1318.739 395.058,1359.021 440.891,1359.021 440.891,1513.192 
				481.172,1513.192 481.172,1359.021 527.011,1359.021 			"/>
			<path fill="#115840" d="M400.609,1192.339l1.391-1.391c8.333-13.891,12.5-29.172,12.5-45.839c0-47.224-38.891-86.12-86.12-86.12
				c-47.229,0-86.12,38.896-86.12,86.12c0,16.672,4.167,31.948,12.5,45.839l1.391,1.391H90.865v40.275h216.682v131.953
				l40.281,50.006V1232.62h216.688v-40.276H400.609V1192.339z M328.38,1192.339c-26.391,0-47.229-20.834-47.229-47.229
				c0-26.391,20.838-47.224,47.229-47.224s47.225,20.833,47.225,47.224C374.219,1171.505,353.386,1192.339,328.38,1192.339"/>
			<path fill="#115840" d="M611.739,1549.317c-6.947,61.104-31.947,119.448-75.005,165.281
				c-48.614,52.787-115.286,84.729-187.511,90.281h-1.391v-180.563l-40.281-50.01v230.572h-1.391
				c-72.224-5.552-138.896-37.494-187.515-90.281c-43.057-45.838-68.057-102.781-75.005-165.281l-41.667-36.125l0,0v6.948
				c0,59.724,16.667,118.063,47.229,169.453c30.558,50.011,75,91.677,126.396,118.063l150.015,133.354l150.011-133.354
				c52.781-27.771,95.839-68.052,126.396-119.448c31.948-51.4,47.229-109.729,47.229-169.463v-6.938L611.739,1549.317z
				 M328.38,1888.224L328.38,1888.224l-54.171-47.229h2.776c16.672,2.775,33.339,4.172,50.005,4.172
				c16.667,0,33.334-1.396,50.006-4.172h2.775L328.38,1888.224z"/>
		</g>
		<g>
			<polygon fill="#115840" points="870.089,1640.979 949.261,1640.979 949.261,1846.547 990.933,1846.547 990.933,1640.979 
				1070.104,1640.979 1070.104,1603.484 870.089,1603.484 			"/>
			<path fill="#115840" d="M1332.625,1849.333h19.442v-34.729H1335.4c-15.281,0-27.775-6.948-38.891-23.609
				c0,0-22.224-33.334-25.005-38.891c37.506-8.334,61.12-31.943,61.12-72.234c0-38.891-26.391-76.386-86.12-76.386
				c-18.058,0-37.505,0-55.563,0c-18.052,0-37.5,0-55.557,0h-1.391v243.063h41.666v-88.886h48.615
				c2.775,1.396,5.552,6.948,11.109,16.672c5.552,9.714,19.442,30.547,19.442,30.547
				C1278.453,1839.609,1296.511,1849.333,1332.625,1849.333 M1175.672,1718.771v-77.791h72.229
				c30.558,0,44.447,18.057,44.447,38.891c0,19.447-11.108,37.516-44.447,37.516"/>
			<path fill="#115840" d="M1564.583,1745.156c0,40.281-23.608,66.672-61.109,66.672c-1.396,0-2.775,0-4.172,0
				c-37.5-1.386-59.724-26.386-59.724-66.672v-141.672h-41.667v141.672c0,62.5,38.891,104.177,100.005,105.563
				c1.391,0,2.781,0,4.167,0c61.114,0,101.401-41.667,101.401-105.563v-141.672h-41.672v141.672H1564.583z"/>
			<path fill="#115840" d="M1770.162,1700.714c-34.729-5.553-56.953-12.5-56.953-33.334c0-20.844,20.827-34.729,54.172-34.729
				c24.999,0,47.219,9.724,58.333,26.385l1.391,1.396l31.948-20.834l-1.391-1.396c-18.063-27.781-47.225-41.667-90.281-41.667
				c-31.959,0-59.734,9.725-76.396,26.386c-11.119,11.109-18.063,26.396-18.063,44.453c0,54.167,48.615,65.276,94.459,72.224
				c41.666,5.553,59.724,16.672,59.724,37.506c0,34.719-45.839,37.494-59.724,37.494c-19.448,0-54.172-5.552-73.62-38.891
				l-1.391-1.385l-31.948,20.822l1.391,1.396c20.828,37.505,54.167,55.563,104.178,55.563c48.609,0,100-19.448,101.396-75
				C1868.781,1721.547,1821.553,1707.661,1770.162,1700.714"/>
			<polygon fill="#115840" points="1914.614,1640.979 1993.787,1640.979 1993.787,1846.547 2035.459,1846.547 2035.459,1640.979 
				2114.631,1640.979 2114.631,1603.484 1914.614,1603.484 			"/>
		</g>
		<g>
			<path fill="#115840" d="M1646.542,1492.364h19.442v-36.119h-16.667c-15.281,0-27.781-6.943-38.891-23.609
				c0,0-22.229-33.339-25.005-38.896c37.5-8.333,61.114-31.947,61.114-72.229c0-38.891-26.391-76.391-86.125-76.391
				c-18.052,0-37.5,0-55.558,0c-18.052,0-37.5,0-55.557,0h-1.396v243.067h41.684v-88.886h48.614
				c2.775,1.391,5.552,6.948,11.108,16.667c5.553,9.724,19.443,30.558,19.443,30.558
				C1592.37,1481.245,1610.427,1492.364,1646.542,1492.364 M1489.584,1361.797v-77.786h72.224c30.563,0,44.453,18.057,44.453,38.896
				c0,19.442-11.114,37.5-44.453,37.5h-72.224V1361.797z"/>
			<path fill="#115840" d="M2710.511,1492.364h19.442v-36.119h-16.667c-15.286,0-27.78-6.943-38.89-23.609
				c0,0-22.225-33.339-25-38.896c37.494-8.333,61.109-31.947,61.109-72.229c0-38.891-26.392-76.391-86.115-76.391
				c-18.058,0-37.505,0-55.567,0c-18.053,0-37.501,0-55.558,0h-1.391v243.067h41.672v-88.886h48.62
				c2.775,1.391,5.552,6.948,11.109,16.667c5.552,9.724,19.442,30.558,19.442,30.558
				C2657.729,1481.245,2674.396,1492.364,2710.511,1492.364 M2553.553,1361.797v-77.786h72.229
				c30.558,0,44.443,18.057,44.443,38.896c0,19.442-11.109,37.5-44.443,37.5h-72.229V1361.797L2553.553,1361.797z"/>
			<polygon fill="#115840" points="1036.771,1413.192 903.427,1246.511 902.036,1246.511 870.089,1246.511 870.089,1489.583 
				913.151,1489.583 913.151,1322.906 1046.495,1489.583 1078.443,1489.583 1078.443,1246.511 1036.771,1246.511 			"/>
			<polygon fill="#115840" points="1896.558,1246.511 1697.933,1246.511 1697.933,1284.011 1775.719,1284.011 1775.719,1489.583 
				1818.776,1489.583 1818.776,1284.011 1896.558,1284.011 			"/>
			<polygon fill="#115840" points="2002.12,1389.573 2125.745,1389.573 2125.745,1489.583 2167.417,1489.583 2167.417,1246.511 
				2125.745,1246.511 2125.745,1350.683 2002.12,1350.683 2002.12,1246.511 1960.453,1246.511 1960.453,1489.583 2002.12,1489.583 
							"/>
			<polygon fill="#115840" points="2435.49,1447.917 2296.589,1447.917 2296.589,1386.797 2428.542,1386.797 2428.542,1347.906 
				2296.589,1347.906 2296.589,1286.792 2434.099,1286.792 2434.099,1246.511 2254.917,1246.511 2254.917,1489.583 
				2435.49,1489.583 			"/>
			<polygon fill="#115840" points="2956.359,1246.511 2956.359,1413.192 2823.021,1246.511 2821.63,1246.511 2791.073,1246.511 
				2791.073,1489.583 2832.745,1489.583 2832.745,1322.906 2966.084,1488.192 2966.084,1489.583 2998.031,1489.583 
				2998.031,1246.511 			"/>
			<path fill="#115840" d="M1261.787,1240.953c-69.448,0-126.401,56.948-126.401,126.401s56.953,126.396,126.401,126.396
				c69.447,0,126.4-56.948,126.4-126.401S1331.24,1240.953,1261.787,1240.953 M1261.787,1456.245
				c-48.615,0-87.506-38.891-87.506-87.506c0-48.614,38.891-87.505,87.506-87.505c48.614,0,87.505,38.891,87.505,87.505
				C1349.292,1415.969,1310.401,1456.245,1261.787,1456.245"/>
		</g>
	</g>
</g>
</svg>
