<?xml version="1.0" standalone="no"?>
<!DOCTYPE svg PUBLIC "-//W3C//DTD SVG 20010904//EN"
 "http://www.w3.org/TR/2001/REC-SVG-20010904/DTD/svg10.dtd">
<svg version="1.0" xmlns="http://www.w3.org/2000/svg"
 width="35.000000pt" height="408.000000pt" viewBox="0 0 35.000000 408.000000"
 preserveAspectRatio="xMidYMid meet">

<g transform="translate(0.000000,408.000000) scale(0.100000,-0.100000)"
fill="#000000" stroke="none">
<path d="M0 3985 c0 -70 3 -85 15 -85 29 0 75 -30 90 -59 34 -67 37 -117 45
-681 8 -612 17 -731 68 -950 34 -144 34 -206 0 -350 -51 -219 -60 -338 -68
-950 -5 -367 -12 -580 -19 -609 -23 -86 -60 -131 -108 -131 -22 0 -23 -3 -23
-85 0 -93 1 -94 61 -74 104 35 155 162 179 444 5 66 10 341 10 610 0 570 12
714 72 875 26 70 26 121 0 190 -11 30 -30 100 -43 155 -20 95 -22 133 -29 730
-6 495 -11 652 -23 732 -33 210 -85 296 -194 316 l-33 7 0 -85z"/>
</g>
</svg>
