<?xml version="1.0" standalone="no"?>
<!DOCTYPE svg PUBLIC "-//W3C//DTD SVG 20010904//EN"
 "http://www.w3.org/TR/2001/REC-SVG-20010904/DTD/svg10.dtd">
<svg version="1.0" xmlns="http://www.w3.org/2000/svg"
 width="35.000000pt" height="408.000000pt" viewBox="0 0 35.000000 408.000000"
 preserveAspectRatio="xMidYMid meet">

<g transform="translate(0.000000,408.000000) scale(0.100000,-0.100000)"
fill="#000000" stroke="none">
<path d="M0 3996 c0 -76 2 -86 18 -86 26 0 62 -28 74 -59 26 -64 30 -140 38
-696 8 -601 15 -725 57 -940 24 -126 27 -214 10 -291 -50 -221 -67 -484 -67
-1019 0 -242 -5 -483 -10 -535 -13 -118 -41 -180 -88 -195 l-32 -9 0 -83 0
-83 27 6 c98 24 147 99 192 294 32 138 41 325 41 839 1 358 4 512 14 586 17
119 42 239 56 265 14 26 12 73 -4 117 -18 48 -42 164 -55 272 -7 49 -11 286
-11 566 0 613 -10 749 -66 930 -38 122 -89 185 -161 200 l-33 7 0 -86z"/>
</g>
</svg>
