<?xml version="1.0" standalone="no"?>
<!DOCTYPE svg PUBLIC "-//W3C//DTD SVG 20010904//EN"
 "http://www.w3.org/TR/2001/REC-SVG-20010904/DTD/svg10.dtd">
<svg version="1.0" xmlns="http://www.w3.org/2000/svg"
 width="500.000000pt" height="441.000000pt" viewBox="0 0 500.000000 441.000000"
 preserveAspectRatio="xMidYMid meet">

<g transform="translate(0.000000,441.000000) scale(0.100000,-0.100000)"
fill="#000000" stroke="none">
<path d="M295 4276 c-70 -30 -132 -135 -159 -267 -32 -159 -37 -248 -42 -819
-6 -626 -15 -755 -64 -899 -25 -75 -25 -90 1 -171 48 -155 59 -284 59 -745 1
-666 16 -894 70 -1054 40 -120 89 -175 173 -195 l27 -6 0 82 0 83 -38 16 c-47
20 -68 59 -81 155 -5 38 -12 310 -15 604 -5 564 -14 710 -58 955 -28 151 -28
229 0 380 44 245 53 391 58 950 3 292 10 567 15 613 13 96 38 142 87 157 l32
9 0 83 c0 92 -4 96 -65 69z"/>
<path d="M4650 4206 c0 -76 2 -86 18 -86 25 0 67 -47 81 -90 24 -76 31 -235
31 -677 0 -503 13 -739 53 -943 28 -147 28 -263 0 -410 -38 -198 -45 -318 -53
-930 -8 -622 -11 -670 -54 -735 -10 -15 -31 -31 -47 -37 -29 -10 -29 -10 -29
-94 l0 -84 28 6 c35 8 91 52 119 93 26 39 68 164 82 246 23 134 31 342 31 817
0 564 7 654 71 859 l21 66 -26 84 c-56 183 -58 206 -66 884 -5 347 -11 641
-14 655 -3 14 -10 61 -16 104 -15 99 -54 218 -89 270 -27 42 -67 70 -113 81
l-28 7 0 -86z"/>
<path d="M1523 2597 c-37 -14 -54 -28 -24 -20 46 12 51 -6 51 -203 l0 -184 34
17 c30 14 35 22 46 77 7 33 16 69 21 78 21 40 134 28 144 -15 3 -12 6 -49 7
-82 l3 -60 40 -3 c24 -2 59 5 85 16 l45 19 -45 -1 -45 -1 -3 72 c-3 65 -6 74
-30 94 -22 17 -37 20 -83 17 -30 -2 -75 -14 -98 -25 l-44 -22 7 92 c7 110 -3
141 -49 144 -17 1 -44 -3 -62 -10z"/>
<path d="M2440 2598 c-35 -10 -35 -10 -10 -20 13 -5 28 -14 33 -21 4 -7 5 -73
2 -147 -7 -151 0 -189 36 -209 22 -12 33 -12 85 5 l59 18 -39 7 c-65 11 -69
23 -61 191 7 140 6 147 -14 167 -23 23 -38 24 -91 9z"/>
<path d="M2753 2578 c-34 -15 -43 -24 -43 -43 0 -30 0 -30 44 -8 21 10 37 26
41 41 3 13 5 25 3 27 -2 1 -22 -6 -45 -17z"/>
<path d="M3643 2575 c-25 -10 -33 -20 -33 -39 0 -24 2 -25 27 -15 38 14 53 28
53 50 0 22 -5 23 -47 4z"/>
<path d="M3337 2482 c-25 -10 -39 -23 -43 -39 -4 -13 -16 -30 -27 -38 -21 -15
-21 -15 6 -15 27 0 27 0 21 -57 -3 -33 -1 -70 5 -86 21 -53 97 -63 190 -25
l32 13 -54 0 c-75 0 -87 13 -87 90 l0 62 58 12 c92 18 98 31 15 31 l-72 0 -3
33 -3 33 -38 -14z"/>
<path d="M1204 2413 c-19 -9 -35 -28 -43 -48 -12 -35 -48 -85 -59 -85 -4 0
-15 20 -25 45 -39 94 -75 113 -152 81 -37 -16 -47 -27 -17 -19 10 2 31 -6 46
-18 29 -23 76 -110 76 -141 0 -48 44 -25 109 57 l44 55 43 -62 c24 -33 45 -65
46 -70 6 -18 58 20 127 94 52 55 71 83 71 103 0 15 -3 25 -7 23 -58 -28 -63
-33 -63 -58 0 -16 -13 -42 -32 -64 l-33 -38 -43 61 c-23 34 -46 69 -50 80 -6
17 -9 17 -38 4z"/>
<path d="M3025 2416 c-70 -17 -115 -45 -115 -72 0 -26 31 -40 110 -49 69 -9
107 -30 89 -51 -14 -17 -83 -19 -127 -3 -24 8 -37 7 -63 -6 -29 -15 -31 -18
-14 -27 9 -6 54 -8 99 -6 63 3 92 10 126 29 90 50 76 86 -37 99 -80 8 -116 24
-111 48 2 13 16 18 55 20 29 2 60 -1 70 -7 22 -11 88 13 78 29 -8 13 -98 11
-160 -4z"/>
<path d="M2121 2401 c-93 -33 -140 -82 -127 -134 8 -35 40 -55 109 -68 140
-25 307 71 269 156 -26 57 -154 81 -251 46z m124 -30 c45 -26 62 -61 46 -98
-23 -56 -111 -71 -172 -30 -64 43 -62 113 4 142 36 16 77 11 122 -14z"/>
<path d="M2690 2405 c-28 -11 -30 -14 -12 -14 21 -1 22 -5 22 -83 0 -46 4 -88
8 -94 13 -21 66 -23 122 -5 53 17 53 18 18 18 -59 -1 -70 15 -62 95 9 97 -12
115 -96 83z"/>
<path d="M3585 2405 c-27 -13 -27 -14 -7 -15 21 0 22 -4 22 -82 0 -46 4 -88 8
-94 12 -19 54 -24 101 -12 l44 11 -34 16 -34 16 0 75 c0 41 -4 81 -8 88 -10
16 -54 14 -92 -3z"/>
<path d="M3929 2406 c-134 -47 -166 -125 -79 -184 31 -21 43 -23 110 -19 41 2
91 11 110 20 l35 15 -50 -5 c-126 -13 -215 65 -157 137 15 19 29 23 77 24 35
0 60 -4 62 -11 5 -13 83 14 83 29 0 13 -151 9 -191 -6z"/>
<path d="M2300 2081 c0 -25 -3 -28 -25 -23 -15 2 -25 0 -25 -7 0 -6 11 -11 25
-11 24 0 25 -3 25 -59 0 -88 17 -105 111 -107 69 -2 70 -2 18 4 -79 10 -89 21
-89 98 l0 64 70 0 c39 0 70 4 70 9 0 4 -15 9 -32 9 -109 1 -108 1 -108 27 0
18 -5 25 -20 25 -15 0 -20 -7 -20 -29z"/>
<path d="M1061 2050 c-41 -10 -64 -31 -55 -53 7 -19 51 -32 139 -43 74 -8 105
-19 105 -38 0 -27 -56 -39 -155 -34 -108 6 -129 -7 -29 -17 116 -13 224 15
224 57 0 16 -66 37 -150 47 -92 12 -111 22 -94 49 10 14 28 17 118 17 58 0
106 3 106 6 0 18 -144 24 -209 9z"/>
<path d="M1409 2032 c11 -16 27 -35 36 -42 8 -7 38 -39 65 -71 l50 -57 -33
-21 c-21 -12 -51 -21 -76 -21 -22 0 -41 -4 -41 -10 0 -13 55 -13 101 0 27 8
63 39 143 124 58 63 106 117 106 120 0 22 -36 -5 -105 -80 l-81 -86 -74 85
c-41 47 -83 86 -93 86 -17 1 -17 -1 2 -27z"/>
<path d="M1933 2050 c-60 -14 -82 -49 -44 -69 11 -6 63 -17 117 -25 113 -17
130 -28 94 -58 -23 -18 -35 -20 -132 -16 -121 5 -146 -6 -38 -17 132 -13 240
16 223 61 -7 18 -54 32 -148 44 -90 11 -116 27 -89 54 14 15 33 17 120 14 103
-3 133 4 73 16 -41 8 -135 6 -176 -4z"/>
<path d="M2685 2051 c-102 -25 -133 -80 -77 -141 34 -38 115 -55 222 -46 110
9 107 24 -3 18 -52 -2 -111 -2 -132 2 -39 8 -75 37 -75 61 0 13 24 15 160 15
148 0 160 1 160 18 0 60 -142 100 -255 73z m185 -26 c18 -9 30 -24 30 -35 0
-19 -7 -20 -140 -20 -77 0 -140 2 -140 4 0 19 18 40 44 52 43 19 169 18 206
-1z"/>
<path d="M3090 1965 c0 -78 3 -95 15 -95 12 0 15 13 15 58 0 50 4 62 26 83 21
20 38 24 100 27 101 6 114 -6 114 -100 0 -61 2 -68 20 -68 18 0 20 7 20 65 0
59 2 66 27 82 18 12 52 19 100 22 100 5 113 -7 113 -101 0 -61 2 -68 20 -68
18 0 20 6 19 53 -1 78 -11 100 -49 120 -45 23 -156 17 -204 -11 -31 -18 -32
-18 -60 2 -36 27 -164 30 -213 4 -32 -16 -33 -16 -33 3 0 10 -7 19 -15 19 -12
0 -15 -17 -15 -95z"/>
<path d="M3881 2050 c-41 -10 -64 -31 -55 -53 7 -19 51 -32 139 -43 74 -8 105
-19 105 -38 0 -27 -56 -39 -155 -34 -108 6 -129 -7 -29 -17 116 -13 224 15
224 57 0 16 -66 37 -150 47 -92 12 -111 22 -94 49 10 14 28 17 118 17 58 0
106 3 106 6 0 18 -144 24 -209 9z"/>
</g>
</svg>
