<?xml version="1.0" standalone="no"?>
<!DOCTYPE svg PUBLIC "-//W3C//DTD SVG 20010904//EN"
 "http://www.w3.org/TR/2001/REC-SVG-20010904/DTD/svg10.dtd">
<svg version="1.0" xmlns="http://www.w3.org/2000/svg"
 width="500.000000pt" height="441.000000pt" viewBox="0 0 500.000000 441.000000"
 preserveAspectRatio="xMidYMid meet">

<g transform="translate(0.000000,441.000000) scale(0.100000,-0.100000)"
fill="#000000" stroke="none">
<path d="M295 4276 c-70 -30 -132 -135 -159 -267 -32 -159 -37 -248 -42 -819
-6 -626 -15 -755 -64 -899 -25 -75 -25 -90 1 -171 48 -155 59 -284 59 -745 1
-666 16 -894 70 -1054 40 -120 89 -175 173 -195 l27 -6 0 82 0 83 -38 16 c-47
20 -68 59 -81 155 -5 38 -12 310 -15 604 -5 564 -14 710 -58 955 -28 151 -28
229 0 380 44 245 53 391 58 950 3 292 10 567 15 613 13 96 38 142 87 157 l32
9 0 83 c0 92 -4 96 -65 69z"/>
<path d="M4650 4206 c0 -76 2 -86 18 -86 25 0 67 -47 81 -90 24 -76 31 -235
31 -677 0 -503 13 -739 53 -943 28 -147 28 -263 0 -410 -38 -198 -45 -318 -53
-930 -8 -622 -11 -670 -54 -735 -10 -15 -31 -31 -47 -37 -29 -10 -29 -10 -29
-94 l0 -84 28 6 c35 8 91 52 119 93 26 39 68 164 82 246 23 134 31 342 31 817
0 564 7 654 71 859 l21 66 -26 84 c-56 183 -58 206 -66 884 -5 347 -11 641
-14 655 -3 14 -10 61 -16 104 -15 99 -54 218 -89 270 -27 42 -67 70 -113 81
l-28 7 0 -86z"/>
<path d="M1345 2846 c-34 -17 -43 -25 -29 -25 11 -1 28 -9 38 -20 15 -16 16
-49 14 -317 l-3 -299 47 30 c46 30 47 31 47 85 1 76 27 171 52 193 26 21 58
22 104 3 44 -19 58 -68 49 -169 -7 -86 4 -124 41 -133 27 -7 77 11 131 47 l29
19 -36 -6 c-60 -10 -69 8 -69 137 0 109 0 111 -29 140 -25 25 -37 29 -83 29
-56 0 -128 -27 -164 -61 l-20 -19 4 169 5 169 -26 26 c-32 32 -39 32 -102 2z"/>
<path d="M2460 2861 c-27 -8 -90 -40 -90 -45 0 -1 13 -1 29 2 23 3 33 -2 47
-22 15 -24 16 -49 12 -234 -8 -312 5 -372 76 -372 27 0 115 38 138 59 4 4 -10
5 -31 3 -33 -3 -41 1 -65 29 l-28 33 4 257 c3 241 2 258 -16 278 -20 22 -35
24 -76 12z"/>
<path d="M2795 2814 c-35 -20 -41 -29 -45 -68 l-6 -45 46 26 c54 32 60 39 60
81 0 37 -2 38 -55 6z"/>
<path d="M3865 2814 c-35 -20 -41 -29 -45 -68 l-6 -45 46 26 c54 32 60 39 60
81 0 37 -2 38 -55 6z"/>
<path d="M3493 2657 c-33 -16 -43 -27 -43 -44 0 -26 -26 -83 -38 -83 -4 0 -18
-10 -32 -21 -21 -17 -22 -19 -3 -10 12 6 34 11 49 11 l27 0 -6 -98 c-11 -155
17 -212 102 -212 40 0 171 49 171 64 0 2 -17 0 -37 -5 -49 -11 -108 5 -128 34
-11 16 -15 48 -15 124 l0 103 28 0 c36 0 114 23 140 42 18 12 10 13 -73 10
l-94 -4 -3 54 -3 55 -42 -20z"/>
<path d="M1226 2549 c-34 -26 -38 -33 -40 -76 -1 -35 -11 -64 -36 -105 l-34
-57 -47 87 c-25 48 -53 105 -60 127 -7 22 -14 42 -16 44 -1 2 -20 -10 -42 -25
-25 -18 -41 -37 -41 -50 0 -44 -59 -164 -80 -164 -4 0 -12 24 -19 53 -15 68
-66 176 -86 184 -23 8 -85 -13 -119 -41 -28 -24 -28 -24 -4 -19 53 10 126
-124 145 -268 3 -22 8 -38 12 -37 33 16 81 56 81 69 0 16 71 132 87 142 12 8
104 -171 103 -201 l0 -24 33 26 c45 37 40 30 127 155 86 122 97 146 83 184
l-8 24 -39 -28z"/>
<path d="M3164 2566 c-78 -19 -147 -58 -165 -95 -32 -62 -2 -95 102 -112 77
-12 123 -37 127 -68 5 -31 -12 -41 -74 -41 -37 0 -59 6 -77 20 -24 19 -29 20
-55 6 -16 -8 -34 -22 -42 -31 -24 -29 4 -40 98 -40 75 0 94 4 138 27 59 31
104 79 104 112 0 37 -32 57 -112 67 -40 6 -84 16 -98 22 -32 15 -48 60 -30 81
21 27 146 18 152 -11 2 -10 13 -7 46 14 50 33 53 48 11 57 -42 8 -64 7 -125
-8z"/>
<path d="M4274 2560 c-137 -29 -224 -111 -224 -212 0 -131 148 -186 306 -114
31 15 55 28 53 30 -2 2 -28 0 -58 -6 -72 -13 -114 -4 -156 33 -60 53 -70 144
-24 203 18 23 28 26 77 26 59 0 76 -6 83 -28 3 -9 19 -3 53 18 28 18 45 35 40
40 -14 14 -104 20 -150 10z"/>
<path d="M2077 2545 c-143 -53 -224 -188 -165 -275 27 -41 82 -71 143 -77 86
-10 224 54 272 126 28 42 31 111 5 160 -35 71 -157 102 -255 66z m93 -44 c72
-38 104 -121 76 -196 -21 -55 -67 -80 -128 -70 -56 10 -117 67 -125 117 -20
127 73 205 177 149z"/>
<path d="M2720 2534 c-25 -14 -37 -23 -26 -19 39 12 46 -10 46 -151 0 -121 2
-136 20 -154 26 -26 64 -25 125 4 45 22 47 25 22 25 -15 1 -38 11 -51 24 -22
23 -23 28 -18 147 4 111 3 124 -13 137 -27 19 -54 16 -105 -13z"/>
<path d="M3790 2534 c-25 -14 -37 -23 -26 -19 39 12 46 -10 46 -151 0 -121 2
-136 20 -154 26 -26 64 -25 125 4 45 22 47 25 22 25 -15 1 -38 11 -51 24 -22
23 -23 28 -18 147 4 111 3 124 -13 137 -27 19 -54 16 -105 -13z"/>
<path d="M2260 2010 c0 -38 -2 -40 -30 -40 -20 0 -30 -5 -30 -15 0 -10 10 -15
30 -15 l30 0 1 -87 c0 -113 14 -153 59 -175 37 -19 160 -26 160 -9 0 5 -26 11
-59 13 -32 2 -70 12 -85 21 -25 17 -26 20 -26 127 l0 110 86 0 c64 0 85 3 81
13 -4 11 -26 14 -124 16 l-43 1 0 40 c0 36 -2 40 -25 40 -22 0 -25 -4 -25 -40z"/>
<path d="M773 1954 c-31 -11 -44 -23 -52 -45 -5 -16 -8 -36 -5 -44 9 -22 69
-45 162 -61 100 -18 132 -34 132 -69 0 -47 -93 -73 -202 -55 -37 5 -74 13 -82
16 -22 9 -21 -22 2 -31 34 -14 187 -16 242 -3 44 11 58 19 73 45 35 61 -4 90
-156 117 -104 18 -127 29 -127 61 0 42 42 60 140 60 47 0 95 -4 108 -8 16 -6
22 -5 22 6 0 8 -14 17 -31 21 -55 11 -183 5 -226 -10z"/>
<path d="M1271 1819 c54 -82 99 -155 99 -163 0 -8 -16 -28 -35 -45 -30 -26
-44 -31 -86 -31 -36 0 -49 -4 -46 -12 6 -19 91 -12 136 9 28 14 62 56 158 198
67 99 122 183 122 188 1 4 -7 7 -18 7 -12 0 -46 -42 -107 -135 -49 -74 -92
-135 -95 -135 -3 0 -46 60 -95 134 -69 104 -93 134 -111 134 -19 0 -9 -19 78
-149z"/>
<path d="M1815 1955 c-101 -36 -80 -121 35 -141 160 -27 200 -43 200 -76 0
-22 -50 -56 -91 -62 -42 -6 -166 6 -203 20 -10 4 -16 1 -16 -9 0 -10 17 -19
50 -26 109 -23 241 -7 278 35 52 59 14 97 -124 123 -152 29 -183 52 -135 100
32 32 160 40 239 16 16 -5 22 -3 22 8 0 29 -183 38 -255 12z"/>
<path d="M2712 1956 c-78 -26 -112 -73 -112 -157 0 -44 4 -55 33 -84 37 -37
116 -65 184 -65 75 0 183 21 183 36 0 8 -1 14 -2 14 -2 0 -36 -7 -77 -15 -153
-32 -281 16 -281 105 0 19 5 20 190 20 l190 0 0 28 c0 38 -33 88 -72 108 -44
23 -178 29 -236 10z m173 -16 c44 -10 95 -58 95 -90 0 -19 -7 -20 -170 -20
-93 0 -170 2 -170 4 0 21 27 68 46 80 47 32 130 42 199 26z"/>
<path d="M3200 1815 c0 -148 1 -155 20 -155 19 0 20 7 20 95 0 145 25 176 152
191 64 7 113 -12 128 -52 6 -14 10 -72 10 -130 0 -97 1 -104 20 -104 19 0 20
7 20 104 0 100 1 105 28 134 43 46 156 66 213 37 41 -22 49 -50 49 -171 0 -97
1 -104 20 -104 19 0 20 7 20 110 0 128 -12 164 -65 186 -70 29 -190 13 -244
-32 l-30 -25 -16 25 c-21 31 -64 46 -134 46 -62 -1 -122 -19 -152 -46 -18 -17
-19 -16 -19 14 0 25 -4 32 -20 32 -19 0 -20 -7 -20 -155z"/>
<path d="M4134 1954 c-40 -14 -64 -45 -64 -80 0 -26 61 -52 159 -70 53 -9 106
-23 119 -30 49 -31 9 -86 -72 -98 -40 -6 -153 6 -190 20 -10 4 -16 1 -16 -9 0
-21 23 -28 110 -34 139 -10 230 25 230 87 0 48 -19 56 -203 91 -161 30 -97
129 75 117 40 -3 81 -9 91 -13 12 -5 17 -3 17 8 0 29 -182 37 -256 11z"/>
</g>
</svg>
