<?xml version="1.0" standalone="no"?>
<!DOCTYPE svg PUBLIC "-//W3C//DTD SVG 20010904//EN"
 "http://www.w3.org/TR/2001/REC-SVG-20010904/DTD/svg10.dtd">
<svg version="1.0" xmlns="http://www.w3.org/2000/svg"
 width="590.000000pt" height="408.000000pt" viewBox="0 0 590.000000 408.000000"
 preserveAspectRatio="xMidYMid meet">

<g transform="translate(0.000000,408.000000) scale(0.100000,-0.100000)"
fill="#000000" stroke="none">
<path d="M294 4069 c-70 -20 -128 -121 -162 -280 -33 -152 -42 -333 -42 -844
0 -280 -4 -517 -11 -566 -13 -108 -37 -224 -55 -272 -16 -44 -18 -91 -4 -117
14 -26 39 -146 56 -265 10 -74 13 -228 14 -586 0 -487 9 -694 36 -824 41 -200
95 -284 197 -309 l27 -6 0 83 0 83 -32 9 c-36 11 -66 54 -81 119 -5 22 -13
304 -17 626 -8 601 -15 724 -58 945 -22 115 -22 235 0 355 44 239 50 339 58
940 5 352 12 603 18 630 6 25 11 48 12 52 1 20 55 68 76 68 23 0 24 2 24 85 0
91 1 91 -56 74z"/>
<path d="M5550 3996 c0 -76 2 -86 18 -86 26 0 62 -28 74 -59 26 -64 30 -140
38 -696 8 -601 15 -725 57 -940 24 -126 27 -214 10 -291 -50 -221 -67 -484
-67 -1019 0 -242 -5 -483 -10 -535 -13 -118 -41 -180 -88 -195 l-32 -9 0 -83
0 -83 28 6 c97 24 146 99 191 294 32 138 41 325 41 839 1 358 4 512 14 586 17
119 42 239 56 265 14 26 12 73 -4 117 -18 48 -42 164 -55 272 -7 49 -11 286
-11 566 0 613 -10 749 -66 930 -38 122 -89 185 -161 200 l-33 7 0 -86z"/>
<path d="M1670 2790 c-32 -9 -110 -49 -110 -56 0 -3 7 -4 15 0 26 10 62 -11
73 -43 7 -20 9 -146 5 -381 -3 -192 -3 -350 1 -350 4 0 27 14 52 30 39 27 44
35 44 68 0 59 29 221 45 252 26 51 120 53 166 4 23 -24 24 -33 25 -170 1 -124
4 -148 19 -164 33 -37 118 -16 190 45 21 18 23 23 8 16 -34 -17 -68 -13 -89
10 -17 19 -19 35 -16 140 3 137 -9 177 -60 209 -61 37 -144 22 -228 -42 l-51
-39 3 209 c3 181 1 211 -14 234 -19 29 -42 38 -78 28z"/>
<path d="M2910 2790 c-32 -9 -110 -49 -110 -56 0 -3 7 -4 15 0 24 9 63 -11 71
-36 4 -13 8 -167 8 -343 1 -346 4 -366 55 -391 31 -16 93 2 158 45 44 29 45
31 15 25 -47 -10 -80 3 -102 39 -19 30 -20 52 -20 358 0 298 -2 327 -17 341
-25 21 -44 26 -73 18z"/>
<path d="M3278 2732 c-43 -24 -48 -31 -48 -62 0 -19 -3 -45 -6 -58 -7 -23 -5
-23 45 8 28 18 56 40 61 50 12 22 13 90 3 89 -5 0 -29 -12 -55 -27z"/>
<path d="M4498 2732 c-43 -24 -48 -31 -48 -62 0 -19 -3 -45 -6 -58 -7 -23 -5
-23 45 8 28 18 56 40 61 50 12 22 13 90 3 89 -5 0 -29 -12 -55 -27z"/>
<path d="M4073 2536 c-47 -27 -53 -34 -53 -64 0 -46 -23 -86 -65 -112 -45 -28
-44 -31 3 -14 64 23 62 28 62 -131 0 -207 23 -252 127 -248 46 2 129 37 173
74 21 17 22 19 3 10 -12 -6 -46 -11 -77 -11 -44 0 -60 5 -85 26 l-31 26 0 133
0 132 62 13 c62 12 114 34 153 64 19 14 18 15 -15 6 -19 -6 -72 -10 -117 -10
l-82 0 -3 68 -3 68 -52 -30z"/>
<path d="M3710 2426 c-103 -23 -175 -68 -206 -127 -33 -64 9 -112 116 -133 41
-8 87 -19 102 -25 35 -13 62 -54 53 -80 -8 -26 -41 -35 -112 -29 -43 4 -61 10
-75 28 l-18 23 -50 -34 c-28 -19 -50 -37 -50 -41 0 -17 52 -40 102 -45 117
-12 290 83 298 163 5 48 -1 65 -32 84 -18 11 -47 20 -65 20 -102 0 -183 44
-183 101 0 23 6 29 35 39 40 13 108 5 143 -16 25 -16 48 -9 90 29 29 27 28 33
-9 46 -39 14 -68 13 -139 -3z"/>
<path d="M845 2411 c-42 -20 -112 -75 -82 -65 9 3 28 3 42 0 46 -12 110 -156
136 -309 l13 -76 40 37 c22 20 51 59 64 87 13 27 39 75 59 106 l36 56 45 -91
c25 -50 52 -114 61 -143 l17 -51 43 41 c44 44 192 263 217 323 13 31 11 104
-3 104 -2 0 -24 -15 -48 -32 -40 -30 -44 -36 -39 -65 7 -40 -17 -115 -57 -178
l-30 -47 -56 118 c-30 66 -61 138 -67 162 l-12 43 -47 -37 c-32 -25 -47 -44
-47 -60 0 -31 -31 -112 -66 -171 l-28 -48 -17 70 c-25 103 -68 203 -96 225
-31 24 -28 24 -78 1z"/>
<path d="M2530 2413 c-86 -14 -190 -74 -231 -132 -89 -125 -51 -274 79 -311
49 -13 131 -13 173 2 45 15 139 74 162 101 106 125 56 304 -93 336 -28 6 -54
10 -58 10 -4 -1 -18 -4 -32 -6z m31 -69 c67 -34 104 -112 97 -205 -4 -51 -9
-64 -38 -94 -28 -29 -41 -35 -76 -35 -110 0 -184 76 -184 190 0 80 40 149 95
163 26 6 73 -2 106 -19z"/>
<path d="M4914 2400 c-69 -24 -125 -61 -157 -103 -37 -49 -48 -83 -48 -145 0
-62 20 -102 74 -146 34 -27 48 -31 112 -34 66 -4 81 -1 144 28 39 18 76 39 82
46 14 17 15 17 -45 -1 -68 -21 -113 -18 -166 9 -36 18 -51 34 -74 80 -28 54
-29 59 -18 117 15 79 33 106 77 115 56 10 126 -4 132 -27 5 -19 6 -19 42 3 60
36 72 49 60 65 -17 20 -152 16 -215 -7z"/>
<path d="M3200 2388 c-35 -18 -41 -23 -25 -26 11 -2 25 -8 30 -14 6 -5 10 -78
10 -177 0 -152 2 -171 19 -190 27 -30 87 -27 156 6 l55 27 -37 4 c-21 2 -47
13 -63 28 l-26 24 7 148 c8 171 2 192 -49 192 -18 0 -52 -10 -77 -22z"/>
<path d="M4420 2388 c-35 -18 -41 -23 -25 -26 11 -2 25 -8 30 -14 6 -5 10 -78
10 -177 0 -152 2 -171 19 -190 27 -30 87 -27 156 6 l55 27 -37 4 c-21 2 -47
13 -63 28 l-26 24 7 148 c8 171 2 192 -49 192 -18 0 -52 -10 -77 -22z"/>
<path d="M2144 1806 c-41 -18 -64 -52 -64 -93 0 -32 -1 -33 -45 -33 -33 0 -45
-4 -45 -15 0 -11 12 -15 45 -15 l45 0 0 -180 c0 -173 1 -180 20 -180 19 0 20
7 20 180 l0 180 75 0 c60 0 75 3 75 15 0 12 -15 15 -75 15 -83 0 -86 3 -61 65
15 36 57 55 124 55 17 0 32 5 32 10 0 15 -110 11 -146 -4z"/>
<path d="M2390 1730 c0 -49 -1 -50 -30 -50 -20 0 -30 -5 -30 -15 0 -10 10 -15
30 -15 l30 0 0 -117 c0 -157 9 -186 63 -212 23 -11 70 -23 105 -27 53 -6 62
-4 62 10 0 12 -10 16 -37 16 -57 0 -111 18 -128 43 -12 17 -15 51 -15 154 l0
133 90 0 c73 0 90 3 90 15 0 12 -17 15 -90 15 l-90 0 0 50 c0 47 -2 50 -25 50
-23 0 -25 -3 -25 -50z"/>
<path d="M1045 1680 c-88 -14 -124 -37 -140 -88 -9 -30 17 -70 58 -87 18 -7
72 -21 120 -31 105 -20 139 -43 135 -87 -5 -51 -53 -72 -160 -70 -49 1 -101 8
-122 17 -34 14 -36 14 -36 -3 0 -27 22 -33 135 -38 121 -6 174 6 209 48 30 35
33 65 8 95 -25 32 -51 42 -158 64 -53 10 -107 26 -120 35 -29 19 -32 64 -6 88
39 35 199 45 255 15 13 -7 17 -5 17 11 0 15 -9 21 -42 26 -82 12 -103 13 -153
5z"/>
<path d="M1599 1679 c-116 -17 -185 -99 -177 -210 8 -116 85 -180 216 -180
145 -1 225 69 226 196 0 62 -11 93 -48 133 -44 50 -131 74 -217 61z m150 -51
c48 -30 71 -73 71 -136 0 -72 -20 -115 -70 -148 -34 -23 -53 -28 -103 -28
-112 1 -169 52 -175 159 -4 67 16 115 60 148 55 41 154 43 217 5z"/>
<path d="M2732 1668 c87 -235 133 -355 139 -363 4 -6 20 -12 36 -13 27 -2 29
2 86 158 33 88 62 160 66 160 4 0 29 -60 56 -132 64 -176 67 -183 102 -186 27
-2 29 2 76 131 27 72 59 160 72 193 l23 62 -23 0 c-21 0 -29 -18 -85 -169 -35
-93 -64 -169 -65 -169 -2 0 -31 77 -66 170 -61 161 -65 170 -90 170 -26 0 -30
-8 -89 -167 -34 -93 -63 -169 -64 -171 -2 -1 -32 74 -67 168 -58 154 -66 170
-88 170 -14 0 -21 -5 -19 -12z"/>
<path d="M3628 1665 c-31 -10 -48 -21 -48 -31 0 -12 6 -15 23 -9 123 39 188
41 264 10 28 -12 63 -58 63 -84 0 -5 -53 -12 -117 -16 -142 -9 -198 -27 -230
-74 -30 -44 -29 -82 2 -120 65 -76 236 -72 309 9 l36 40 0 -50 c0 -47 1 -50
26 -50 l27 0 -5 139 c-6 157 -17 190 -78 225 -46 27 -203 33 -272 11z m302
-180 c0 -38 -37 -109 -70 -133 -65 -48 -183 -49 -231 -1 -23 23 -25 76 -4 107
23 32 97 51 208 51 l97 1 0 -25z"/>
<path d="M4200 1485 c0 -188 1 -195 20 -195 19 0 20 7 20 106 0 130 13 186 51
218 33 28 126 50 169 41 23 -5 30 -3 30 9 0 13 -12 16 -59 16 -68 0 -113 -13
-158 -47 l-33 -24 0 35 c0 29 -4 36 -20 36 -19 0 -20 -7 -20 -195z"/>
<path d="M4675 1665 c-98 -36 -150 -155 -109 -253 22 -55 62 -91 118 -107 96
-29 306 -11 306 26 0 15 -6 15 -77 -3 -165 -40 -296 7 -310 111 l-6 41 208 0
208 0 -7 42 c-10 61 -44 115 -85 135 -48 24 -191 28 -246 8z m218 -31 c32 -17
67 -69 67 -101 l0 -23 -181 0 -181 0 7 28 c9 36 30 68 59 87 53 35 169 39 229
9z"/>
</g>
</svg>
